<svg width="362" height="170" viewBox="0 0 362 170" fill="none" xmlns="http://www.w3.org/2000/svg">
<rect width="362" height="170" rx="10" fill="black"/>
<rect width="362" height="35" transform="translate(0 18)" fill="#6F6F6F"/>
<path d="M49.232 4.612L45.92 9.784V13.564H44.612V9.784L41.3 4.612H42.86L45.26 8.548L47.732 4.612H49.232ZM53.9263 7.996C53.3823 7.996 52.9503 8.212 52.6303 8.644C52.3263 9.068 52.1743 9.616 52.1743 10.288C52.1743 10.96 52.3263 11.508 52.6303 11.932C52.9503 12.364 53.3823 12.58 53.9263 12.58C54.4703 12.58 54.8983 12.364 55.2103 11.932C55.5223 11.516 55.6783 10.968 55.6783 10.288C55.6783 9.616 55.5223 9.068 55.2103 8.644C54.8983 8.212 54.4703 7.996 53.9263 7.996ZM53.9263 6.868C54.9183 6.868 55.6903 7.224 56.2423 7.936C56.7383 8.568 56.9863 9.352 56.9863 10.288C56.9863 11.224 56.7383 12.008 56.2423 12.64C55.6903 13.352 54.9183 13.708 53.9263 13.708C52.9263 13.708 52.1503 13.352 51.5983 12.64C51.1103 12.024 50.8663 11.24 50.8663 10.288C50.8663 9.336 51.1103 8.552 51.5983 7.936C52.1503 7.224 52.9263 6.868 53.9263 6.868ZM63.4477 13.576V12.916C63.0157 13.444 62.4477 13.708 61.7437 13.708C60.9597 13.708 60.3637 13.472 59.9557 13C59.5957 12.56 59.4157 11.968 59.4157 11.224V7.024H60.6997V10.984C60.6997 12.048 61.0877 12.58 61.8637 12.58C62.3837 12.58 62.7797 12.384 63.0517 11.992C63.2677 11.672 63.3757 11.236 63.3757 10.684V7.024H64.6477V11.92C64.6477 12.512 64.6717 13.064 64.7197 13.576H63.4477ZM70.617 8.2C70.513 8.184 70.417 8.172 70.329 8.164C70.241 8.148 70.153 8.14 70.065 8.14C69.601 8.14 69.257 8.368 69.033 8.824C68.825 9.224 68.721 9.72 68.721 10.312V13.564H67.437V8.62C67.437 8.316 67.429 8.032 67.413 7.768C67.405 7.496 67.393 7.244 67.377 7.012H68.673V7.816C69.041 7.184 69.509 6.868 70.077 6.868C70.253 6.868 70.433 6.892 70.617 6.94V8.2ZM80.3677 13.576V12.94C79.9757 13.452 79.4117 13.708 78.6757 13.708C77.8757 13.708 77.2837 13.484 76.8997 13.036C76.6277 12.708 76.4917 12.308 76.4917 11.836C76.4917 10.204 77.6917 9.388 80.0917 9.388H80.2717V9.172C80.2717 8.388 79.9077 7.996 79.1797 7.996C78.5237 7.996 77.8757 8.168 77.2357 8.512V7.336C77.8437 7.024 78.5157 6.868 79.2517 6.868C80.0197 6.868 80.5797 7.048 80.9317 7.408C81.3077 7.8 81.4957 8.408 81.4957 9.232V12.028C81.4957 12.764 81.5197 13.28 81.5677 13.576H80.3677ZM80.2717 10.504H80.0197C79.3957 10.504 78.9157 10.56 78.5797 10.672C78.0437 10.848 77.7757 11.196 77.7757 11.716C77.7757 12.292 78.1077 12.58 78.7717 12.58C79.7717 12.58 80.2717 11.972 80.2717 10.756V10.504ZM93.3868 7.024L91.2148 13.564H89.9188L88.4308 8.824L86.8948 13.564H85.5868L83.4628 7.024H84.8308L86.2828 11.728L87.8068 7.024H89.1148L90.5668 11.728L92.0788 7.024H93.3868ZM98.6955 8.32C98.1675 8.096 97.6675 7.984 97.1955 7.984C96.5315 7.984 96.1995 8.244 96.1995 8.764C96.1995 8.996 96.4515 9.236 96.9555 9.484C97.6835 9.844 98.1515 10.108 98.3595 10.276C98.8555 10.684 99.1035 11.188 99.1035 11.788C99.1035 12.46 98.8355 12.968 98.2995 13.312C97.8755 13.576 97.3675 13.708 96.7755 13.708C96.0555 13.708 95.4315 13.6 94.9035 13.384L95.0235 12.148C95.6075 12.436 96.1795 12.58 96.7395 12.58C97.0595 12.58 97.3235 12.496 97.5315 12.328C97.7235 12.176 97.8195 11.976 97.8195 11.728C97.8195 11.408 97.5755 11.112 97.0875 10.84C96.6315 10.592 96.2915 10.404 96.0675 10.276C95.8435 10.148 95.7275 10.08 95.7195 10.072C95.2315 9.704 94.9875 9.252 94.9875 8.716C94.9875 8.06 95.2315 7.572 95.7195 7.252C96.1115 6.996 96.5875 6.868 97.1475 6.868C97.7715 6.868 98.3315 6.976 98.8275 7.192L98.6955 8.32ZM104.009 7.996C103.465 7.996 103.033 8.212 102.713 8.644C102.409 9.068 102.257 9.616 102.257 10.288C102.257 10.96 102.409 11.508 102.713 11.932C103.033 12.364 103.465 12.58 104.009 12.58C104.553 12.58 104.981 12.364 105.293 11.932C105.605 11.516 105.761 10.968 105.761 10.288C105.761 9.616 105.605 9.068 105.293 8.644C104.981 8.212 104.553 7.996 104.009 7.996ZM104.009 6.868C105.001 6.868 105.773 7.224 106.325 7.936C106.821 8.568 107.069 9.352 107.069 10.288C107.069 11.224 106.821 12.008 106.325 12.64C105.773 13.352 105.001 13.708 104.009 13.708C103.009 13.708 102.233 13.352 101.681 12.64C101.193 12.024 100.949 11.24 100.949 10.288C100.949 9.336 101.193 8.552 101.681 7.936C102.233 7.224 103.009 6.868 104.009 6.868ZM118.271 13.516H117.023V9.292C117.023 8.444 116.647 8.02 115.895 8.02C115.527 8.02 115.223 8.172 114.983 8.476C114.695 8.828 114.551 9.324 114.551 9.964V13.516H113.291V9.292C113.291 8.444 112.915 8.02 112.163 8.02C111.787 8.02 111.487 8.168 111.263 8.464C110.983 8.816 110.843 9.316 110.843 9.964V13.516H109.571V8.68C109.571 8.312 109.567 7.992 109.559 7.72C109.551 7.448 109.539 7.22 109.523 7.036H110.771V7.624C111.131 7.136 111.695 6.892 112.463 6.892C112.791 6.892 113.119 6.988 113.447 7.18C113.783 7.388 114.019 7.648 114.155 7.96C114.603 7.248 115.271 6.892 116.159 6.892C116.839 6.892 117.367 7.096 117.743 7.504C118.095 7.88 118.271 8.396 118.271 9.052V13.516ZM126.181 10.744H122.137C122.161 11.32 122.317 11.768 122.605 12.088C122.901 12.432 123.309 12.604 123.829 12.604C124.549 12.604 125.185 12.448 125.737 12.136V13.348C125.097 13.588 124.449 13.708 123.793 13.708C122.761 13.708 121.993 13.38 121.489 12.724C121.049 12.14 120.829 11.324 120.829 10.276C120.829 9.268 121.073 8.448 121.561 7.816C122.049 7.184 122.705 6.868 123.529 6.868C124.449 6.868 125.137 7.196 125.593 7.852C125.985 8.412 126.181 9.152 126.181 10.072V10.744ZM124.873 9.604C124.873 9.156 124.757 8.78 124.525 8.476C124.285 8.156 123.969 7.996 123.577 7.996C123.177 7.996 122.837 8.16 122.557 8.488C122.277 8.816 122.137 9.188 122.137 9.604H124.873ZM137.116 5.86H134.104V8.332H136.948V9.568H134.104V13.516H132.796V4.636H137.116V5.86ZM142.58 13.516C142.276 13.644 141.932 13.708 141.548 13.708C140.788 13.708 140.296 13.504 140.072 13.096C139.904 12.824 139.82 12.3 139.82 11.524V8.128H138.788V6.94H139.82V5.512L141.116 5.092V6.94H142.388V8.128H141.116V11.86C141.116 12.324 141.328 12.556 141.752 12.556C142.032 12.556 142.276 12.504 142.484 12.4L142.58 13.516ZM149.615 10.744H145.571C145.595 11.32 145.751 11.768 146.039 12.088C146.335 12.432 146.743 12.604 147.263 12.604C147.983 12.604 148.619 12.448 149.171 12.136V13.348C148.531 13.588 147.883 13.708 147.227 13.708C146.195 13.708 145.427 13.38 144.923 12.724C144.483 12.14 144.263 11.324 144.263 10.276C144.263 9.268 144.507 8.448 144.995 7.816C145.483 7.184 146.139 6.868 146.963 6.868C147.883 6.868 148.571 7.196 149.027 7.852C149.419 8.412 149.615 9.152 149.615 10.072V10.744ZM148.307 9.604C148.307 9.156 148.191 8.78 147.959 8.476C147.719 8.156 147.403 7.996 147.011 7.996C146.611 7.996 146.271 8.16 145.991 8.488C145.711 8.816 145.571 9.188 145.571 9.604H148.307ZM155.483 13.576V12.94C155.091 13.452 154.527 13.708 153.791 13.708C152.991 13.708 152.399 13.484 152.015 13.036C151.743 12.708 151.607 12.308 151.607 11.836C151.607 10.204 152.807 9.388 155.207 9.388H155.387V9.172C155.387 8.388 155.023 7.996 154.295 7.996C153.639 7.996 152.991 8.168 152.351 8.512V7.336C152.959 7.024 153.631 6.868 154.367 6.868C155.135 6.868 155.695 7.048 156.047 7.408C156.423 7.8 156.611 8.408 156.611 9.232V12.028C156.611 12.764 156.635 13.28 156.683 13.576H155.483ZM155.387 10.504H155.135C154.511 10.504 154.031 10.56 153.695 10.672C153.159 10.848 152.891 11.196 152.891 11.716C152.891 12.292 153.223 12.58 153.887 12.58C154.887 12.58 155.387 11.972 155.387 10.756V10.504ZM168.202 13.516H166.954V9.292C166.954 8.444 166.578 8.02 165.826 8.02C165.458 8.02 165.154 8.172 164.914 8.476C164.626 8.828 164.482 9.324 164.482 9.964V13.516H163.222V9.292C163.222 8.444 162.846 8.02 162.094 8.02C161.718 8.02 161.418 8.168 161.194 8.464C160.914 8.816 160.774 9.316 160.774 9.964V13.516H159.502V8.68C159.502 8.312 159.498 7.992 159.49 7.72C159.482 7.448 159.47 7.22 159.454 7.036H160.702V7.624C161.062 7.136 161.626 6.892 162.394 6.892C162.722 6.892 163.05 6.988 163.378 7.18C163.714 7.388 163.95 7.648 164.086 7.96C164.534 7.248 165.202 6.892 166.09 6.892C166.77 6.892 167.298 7.096 167.674 7.504C168.026 7.88 168.202 8.396 168.202 9.052V13.516ZM172.536 5.704C172.536 6.104 172.468 6.392 172.332 6.568C172.132 6.808 171.828 6.948 171.42 6.988V6.268C171.564 6.268 171.68 6.208 171.768 6.088C171.816 6.032 171.84 5.908 171.84 5.716V5.5H171.336V4.192H172.536V5.704ZM178.752 8.32C178.224 8.096 177.724 7.984 177.252 7.984C176.588 7.984 176.256 8.244 176.256 8.764C176.256 8.996 176.508 9.236 177.012 9.484C177.74 9.844 178.208 10.108 178.416 10.276C178.912 10.684 179.16 11.188 179.16 11.788C179.16 12.46 178.892 12.968 178.356 13.312C177.932 13.576 177.424 13.708 176.832 13.708C176.112 13.708 175.488 13.6 174.96 13.384L175.08 12.148C175.664 12.436 176.236 12.58 176.796 12.58C177.116 12.58 177.38 12.496 177.588 12.328C177.78 12.176 177.876 11.976 177.876 11.728C177.876 11.408 177.632 11.112 177.144 10.84C176.688 10.592 176.348 10.404 176.124 10.276C175.9 10.148 175.784 10.08 175.776 10.072C175.288 9.704 175.044 9.252 175.044 8.716C175.044 8.06 175.288 7.572 175.776 7.252C176.168 6.996 176.644 6.868 177.204 6.868C177.828 6.868 178.388 6.976 178.884 7.192L178.752 8.32ZM190.045 13.456C189.597 13.6 189.025 13.672 188.329 13.672C187.345 13.672 186.569 13.328 186.001 12.64C185.489 12.024 185.233 11.236 185.233 10.276C185.233 9.292 185.529 8.48 186.121 7.84C186.721 7.208 187.477 6.892 188.389 6.892C188.997 6.892 189.549 6.976 190.045 7.144L189.949 8.308C189.477 8.116 188.985 8.02 188.473 8.02C187.849 8.02 187.361 8.228 187.009 8.644C186.665 9.052 186.493 9.596 186.493 10.276C186.493 10.916 186.669 11.456 187.021 11.896C187.365 12.328 187.821 12.544 188.389 12.544C188.909 12.544 189.429 12.448 189.949 12.256L190.045 13.456ZM195.726 13.576V12.94C195.334 13.452 194.77 13.708 194.034 13.708C193.234 13.708 192.642 13.484 192.258 13.036C191.986 12.708 191.85 12.308 191.85 11.836C191.85 10.204 193.05 9.388 195.45 9.388H195.63V9.172C195.63 8.388 195.266 7.996 194.538 7.996C193.882 7.996 193.234 8.168 192.594 8.512V7.336C193.202 7.024 193.874 6.868 194.61 6.868C195.378 6.868 195.938 7.048 196.29 7.408C196.666 7.8 196.854 8.408 196.854 9.232V12.028C196.854 12.764 196.878 13.28 196.926 13.576H195.726ZM195.63 10.504H195.378C194.754 10.504 194.274 10.56 193.938 10.672C193.402 10.848 193.134 11.196 193.134 11.716C193.134 12.292 193.466 12.58 194.13 12.58C195.13 12.58 195.63 11.972 195.63 10.756V10.504ZM202.757 8.2C202.653 8.184 202.557 8.172 202.469 8.164C202.381 8.148 202.293 8.14 202.205 8.14C201.741 8.14 201.397 8.368 201.173 8.824C200.965 9.224 200.861 9.72 200.861 10.312V13.564H199.577V8.62C199.577 8.316 199.569 8.032 199.553 7.768C199.545 7.496 199.533 7.244 199.517 7.012H200.813V7.816C201.181 7.184 201.649 6.868 202.217 6.868C202.393 6.868 202.573 6.892 202.757 6.94V8.2ZM207.38 7.9C206.836 7.9 206.432 8.144 206.168 8.632C205.944 9.032 205.832 9.576 205.832 10.264C205.832 11.792 206.348 12.556 207.38 12.556C207.876 12.556 208.268 12.308 208.556 11.812C208.788 11.388 208.904 10.86 208.904 10.228C208.904 9.596 208.788 9.068 208.556 8.644C208.276 8.148 207.884 7.9 207.38 7.9ZM210.116 13.576H208.904V12.976C208.504 13.472 207.956 13.72 207.26 13.72C206.388 13.72 205.712 13.396 205.232 12.748C204.784 12.116 204.56 11.288 204.56 10.264C204.56 9.208 204.768 8.376 205.184 7.768C205.64 7.088 206.332 6.748 207.26 6.748C207.9 6.748 208.448 7.012 208.904 7.54V3.94H210.116V13.576Z" fill="#CCCCCC"/>
<path d="M12.97 60.53L11.76 57.45L10.54 60.53H12.97ZM15.29 63.47H14.13L13.37 61.56H10.13L9.36 63.47H8.21L11.25 56.01H12.34L15.29 63.47ZM19.7107 63.48V62.93C19.3507 63.37 18.8774 63.59 18.2907 63.59C17.6374 63.59 17.1407 63.3933 16.8007 63C16.5007 62.6333 16.3507 62.14 16.3507 61.52V58.02H17.4207V61.32C17.4207 62.2067 17.744 62.65 18.3907 62.65C18.824 62.65 19.154 62.4867 19.3807 62.16C19.5607 61.8933 19.6507 61.53 19.6507 61.07V58.02H20.7107V62.1C20.7107 62.5933 20.7307 63.0533 20.7707 63.48H19.7107ZM25.0052 63.43C24.7518 63.5367 24.4652 63.59 24.1452 63.59C23.5118 63.59 23.1018 63.42 22.9152 63.08C22.7752 62.8533 22.7052 62.4167 22.7052 61.77V58.94H21.8452V57.95H22.7052V56.76L23.7852 56.41V57.95H24.8452V58.94H23.7852V62.05C23.7852 62.4367 23.9618 62.63 24.3152 62.63C24.5485 62.63 24.7518 62.5867 24.9252 62.5L25.0052 63.43ZM30.408 63.43H29.338V60.23C29.338 59.7433 29.2813 59.3933 29.168 59.18C29.0146 58.9267 28.748 58.8 28.368 58.8C27.948 58.8 27.6246 58.9733 27.398 59.32C27.2046 59.6333 27.108 60.0267 27.108 60.5V63.43H26.038V55.47H27.108V58.48C27.2413 58.26 27.4346 58.0933 27.688 57.98C27.9346 57.86 28.198 57.8 28.478 57.8C29.178 57.8 29.6813 58.0133 29.988 58.44C30.268 58.82 30.408 59.4033 30.408 60.19V63.43ZM34.3024 58.83C33.8491 58.83 33.4891 59.01 33.2224 59.37C32.9691 59.7233 32.8424 60.18 32.8424 60.74C32.8424 61.3 32.9691 61.7567 33.2224 62.11C33.4891 62.47 33.8491 62.65 34.3024 62.65C34.7558 62.65 35.1124 62.47 35.3724 62.11C35.6324 61.7633 35.7624 61.3067 35.7624 60.74C35.7624 60.18 35.6324 59.7233 35.3724 59.37C35.1124 59.01 34.7558 58.83 34.3024 58.83ZM34.3024 57.89C35.1291 57.89 35.7724 58.1867 36.2324 58.78C36.6458 59.3067 36.8524 59.96 36.8524 60.74C36.8524 61.52 36.6458 62.1733 36.2324 62.7C35.7724 63.2933 35.1291 63.59 34.3024 63.59C33.4691 63.59 32.8224 63.2933 32.3624 62.7C31.9558 62.1867 31.7524 61.5333 31.7524 60.74C31.7524 59.9467 31.9558 59.2933 32.3624 58.78C32.8224 58.1867 33.4691 57.89 34.3024 57.89ZM40.7469 59C40.6602 58.9867 40.5802 58.9767 40.5069 58.97C40.4335 58.9567 40.3602 58.95 40.2869 58.95C39.9002 58.95 39.6135 59.14 39.4269 59.52C39.2535 59.8533 39.1669 60.2667 39.1669 60.76V63.47H38.0969V59.35C38.0969 59.0967 38.0902 58.86 38.0769 58.64C38.0702 58.4133 38.0602 58.2033 38.0469 58.01H39.1269V58.68C39.4335 58.1533 39.8235 57.89 40.2969 57.89C40.4435 57.89 40.5935 57.91 40.7469 57.95V59ZM42.8297 63.47H41.7597V57.87H42.8297V63.47ZM42.8297 56.91H41.7597V55.66H42.8297V56.91ZM48.0273 63.43H43.9673V62.64L46.7573 58.98H44.0873V58.03H48.0273V58.83L45.2273 62.5H48.0273V63.43ZM53.3711 61.12H50.0011C50.0211 61.6 50.1511 61.9733 50.3911 62.24C50.6378 62.5267 50.9778 62.67 51.4111 62.67C52.0111 62.67 52.5411 62.54 53.0011 62.28V63.29C52.4678 63.49 51.9278 63.59 51.3811 63.59C50.5211 63.59 49.8811 63.3167 49.4611 62.77C49.0944 62.2833 48.9111 61.6033 48.9111 60.73C48.9111 59.89 49.1144 59.2067 49.5211 58.68C49.9278 58.1533 50.4744 57.89 51.1611 57.89C51.9278 57.89 52.5011 58.1633 52.8811 58.71C53.2078 59.1767 53.3711 59.7933 53.3711 60.56V61.12ZM52.2811 60.17C52.2811 59.7967 52.1844 59.4833 51.9911 59.23C51.7911 58.9633 51.5278 58.83 51.2011 58.83C50.8678 58.83 50.5844 58.9667 50.3511 59.24C50.1178 59.5133 50.0011 59.8233 50.0011 60.17H52.2811ZM56.7903 58.75C56.337 58.75 56.0003 58.9533 55.7803 59.36C55.5936 59.6933 55.5003 60.1467 55.5003 60.72C55.5003 61.9933 55.9303 62.63 56.7903 62.63C57.2036 62.63 57.5303 62.4233 57.7703 62.01C57.9636 61.6567 58.0603 61.2167 58.0603 60.69C58.0603 60.1633 57.9636 59.7233 57.7703 59.37C57.537 58.9567 57.2103 58.75 56.7903 58.75ZM59.0703 63.48H58.0603V62.98C57.727 63.3933 57.2703 63.6 56.6903 63.6C55.9636 63.6 55.4003 63.33 55.0003 62.79C54.627 62.2633 54.4403 61.5733 54.4403 60.72C54.4403 59.84 54.6136 59.1467 54.9603 58.64C55.3403 58.0733 55.917 57.79 56.6903 57.79C57.2236 57.79 57.6803 58.01 58.0603 58.45V55.45H59.0703V63.48ZM67.0675 57.16C66.7342 56.9933 66.2875 56.91 65.7275 56.91C64.8608 56.91 64.4275 57.23 64.4275 57.87C64.4275 58.1767 64.6975 58.5 65.2375 58.84C65.6842 59.1267 66.0342 59.3533 66.2875 59.52C66.5408 59.6867 66.6942 59.7967 66.7475 59.85C67.2875 60.3233 67.5575 60.87 67.5575 61.49C67.5575 62.1833 67.2908 62.7267 66.7575 63.12C66.3042 63.4533 65.7608 63.62 65.1275 63.62C64.4942 63.62 63.9142 63.5033 63.3875 63.27L63.5175 62.16C64.0175 62.44 64.5675 62.58 65.1675 62.58C66.0542 62.58 66.4975 62.19 66.4975 61.41C66.4975 61.1033 66.2275 60.77 65.6875 60.41C65.2008 60.0833 64.8308 59.8333 64.5775 59.66C64.3308 59.4867 64.1975 59.3933 64.1775 59.38C63.6442 58.92 63.3775 58.4167 63.3775 57.87C63.3775 57.25 63.6175 56.7533 64.0975 56.38C64.5308 56.0467 65.0775 55.88 65.7375 55.88C66.2842 55.88 66.7875 55.9667 67.2475 56.14L67.0675 57.16ZM70.0367 63.47H68.9667V57.87H70.0367V63.47ZM70.0367 56.91H68.9667V55.66H70.0367V56.91ZM73.6944 58.88C72.8477 58.88 72.4244 59.47 72.4244 60.65C72.4244 61.7433 72.8344 62.29 73.6544 62.29C74.0944 62.29 74.4277 62.1367 74.6544 61.83C74.861 61.5433 74.9644 61.15 74.9644 60.65C74.9644 60.0233 74.861 59.5733 74.6544 59.3C74.4544 59.02 74.1344 58.88 73.6944 58.88ZM75.9744 58.03V62.31C75.9744 64.0367 75.1344 64.9 73.4544 64.9C72.8344 64.9 72.271 64.8 71.7644 64.6L71.8544 63.58C72.3477 63.8267 72.8844 63.95 73.4644 63.95C74.4177 63.95 74.911 63.53 74.9444 62.69L74.9544 62.64C74.661 63.0533 74.2277 63.26 73.6544 63.26C72.8744 63.26 72.2777 62.9733 71.8644 62.4C71.5177 61.9267 71.3444 61.3333 71.3444 60.62C71.3444 59.7733 71.5277 59.1167 71.8944 58.65C72.2877 58.1567 72.8544 57.91 73.5944 57.91C74.201 57.91 74.6577 58.0633 74.9644 58.37V58.03H75.9744ZM81.9988 63.47H80.9588V60.12C80.9588 59.26 80.6455 58.83 80.0188 58.83C79.5922 58.83 79.2688 59 79.0488 59.34C78.8688 59.6333 78.7788 60.01 78.7788 60.47V63.47H77.7388V59.4C77.7388 59.14 77.7322 58.8967 77.7188 58.67C77.7122 58.4367 77.7022 58.2167 77.6888 58.01H78.6888V58.56C79.0155 58.1133 79.4988 57.89 80.1388 57.89C81.3788 57.89 81.9988 58.58 81.9988 59.96V63.47ZM86.6033 63.48V62.95C86.2766 63.3767 85.8066 63.59 85.1933 63.59C84.5266 63.59 84.0333 63.4033 83.7133 63.03C83.4866 62.7567 83.3733 62.4233 83.3733 62.03C83.3733 60.67 84.3733 59.99 86.3733 59.99H86.5233V59.81C86.5233 59.1567 86.2199 58.83 85.6133 58.83C85.0666 58.83 84.5266 58.9733 83.9933 59.26V58.28C84.4999 58.02 85.0599 57.89 85.6733 57.89C86.3133 57.89 86.7799 58.04 87.0733 58.34C87.3866 58.6667 87.5433 59.1733 87.5433 59.86V62.19C87.5433 62.8033 87.5633 63.2333 87.6033 63.48H86.6033ZM86.5233 60.92H86.3133C85.7933 60.92 85.3933 60.9667 85.1133 61.06C84.6666 61.2067 84.4433 61.4967 84.4433 61.93C84.4433 62.41 84.7199 62.65 85.2733 62.65C86.1066 62.65 86.5233 62.1433 86.5233 61.13V60.92ZM91.7825 63.43C91.5292 63.5367 91.2425 63.59 90.9225 63.59C90.2892 63.59 89.8792 63.42 89.6925 63.08C89.5525 62.8533 89.4825 62.4167 89.4825 61.77V58.94H88.6225V57.95H89.4825V56.76L90.5625 56.41V57.95H91.6225V58.94H90.5625V62.05C90.5625 62.4367 90.7392 62.63 91.0925 62.63C91.3258 62.63 91.5292 62.5867 91.7025 62.5L91.7825 63.43ZM96.1853 63.48V62.93C95.8253 63.37 95.352 63.59 94.7653 63.59C94.112 63.59 93.6153 63.3933 93.2753 63C92.9753 62.6333 92.8253 62.14 92.8253 61.52V58.02H93.8953V61.32C93.8953 62.2067 94.2186 62.65 94.8653 62.65C95.2986 62.65 95.6286 62.4867 95.8553 62.16C96.0353 61.8933 96.1253 61.53 96.1253 61.07V58.02H97.1853V62.1C97.1853 62.5933 97.2053 63.0533 97.2453 63.48H96.1853ZM101.46 59C101.373 58.9867 101.293 58.9767 101.22 58.97C101.146 58.9567 101.073 58.95 101 58.95C100.613 58.95 100.326 59.14 100.14 59.52C99.9664 59.8533 99.8798 60.2667 99.8798 60.76V63.47H98.8098V59.35C98.8098 59.0967 98.8031 58.86 98.7898 58.64C98.7831 58.4133 98.7731 58.2033 98.7598 58.01H99.8398V58.68C100.146 58.1533 100.536 57.89 101.01 57.89C101.156 57.89 101.306 57.91 101.46 57.95V59ZM106.643 61.12H103.273C103.293 61.6 103.423 61.9733 103.663 62.24C103.909 62.5267 104.249 62.67 104.683 62.67C105.283 62.67 105.813 62.54 106.273 62.28V63.29C105.739 63.49 105.199 63.59 104.653 63.59C103.793 63.59 103.153 63.3167 102.733 62.77C102.366 62.2833 102.183 61.6033 102.183 60.73C102.183 59.89 102.386 59.2067 102.793 58.68C103.199 58.1533 103.746 57.89 104.433 57.89C105.199 57.89 105.773 58.1633 106.153 58.71C106.479 59.1767 106.643 59.7933 106.643 60.56V61.12ZM105.553 60.17C105.553 59.7967 105.456 59.4833 105.263 59.23C105.063 58.9633 104.799 58.83 104.473 58.83C104.139 58.83 103.856 58.9667 103.623 59.24C103.389 59.5133 103.273 59.8233 103.273 60.17H105.553Z" fill="#CCCCCC"/>
<path d="M306.19 107.25C305.817 107.457 305.233 107.56 304.44 107.56C303.3 107.56 302.39 107.213 301.71 106.52C301.037 105.813 300.7 104.883 300.7 103.73C300.7 102.59 301.043 101.667 301.73 100.96C302.417 100.253 303.32 99.9 304.44 99.9C305.253 99.9 305.837 99.99 306.19 100.17L306.11 101.19C305.657 101.01 305.1 100.92 304.44 100.92C303.633 100.92 302.99 101.18 302.51 101.7C302.03 102.22 301.79 102.897 301.79 103.73C301.79 104.597 302.023 105.277 302.49 105.77C302.963 106.283 303.613 106.54 304.44 106.54C305.14 106.54 305.697 106.43 306.11 106.21L306.19 107.25ZM314.026 100.03L311.216 107.43H310.186L307.436 100.03H308.616L310.716 106.05L312.896 100.03H314.026ZM320.93 100.03L318.12 107.43H317.09L314.34 100.03H315.52L317.62 106.05L319.8 100.03H320.93Z" fill="#CCCCCC"/>
<rect x="8" y="66" width="344" height="20" fill="#F3F3F3"/>
</svg>
