<svg width="372" height="55" viewBox="0 0 372 55" fill="none" xmlns="http://www.w3.org/2000/svg">
<path d="M16.206 53H15.206V54H16.206V53ZM16.206 12.818H17.206V11.818H16.206V12.818ZM0.296 12.818H-0.704V13.818H0.296V12.818ZM0.296 1.2V0.199996H-0.704V1.2H0.296ZM46.694 1.2H47.694V0.199996H46.694V1.2ZM46.694 12.818V13.818H47.694V12.818H46.694ZM30.858 12.818V11.818H29.858V12.818H30.858ZM30.858 53V54H31.858V53H30.858ZM17.206 53V12.818H15.206V53H17.206ZM16.206 11.818H0.296V13.818H16.206V11.818ZM1.296 12.818V1.2H-0.704V12.818H1.296ZM0.296 2.2H46.694V0.199996H0.296V2.2ZM45.694 1.2V12.818H47.694V1.2H45.694ZM46.694 11.818H30.858V13.818H46.694V11.818ZM29.858 12.818V53H31.858V12.818H29.858ZM30.858 52H16.206V54H30.858V52ZM65.6207 21.254V20.254H64.6207V21.254H65.6207ZM89.6707 21.254H90.6707V20.254H89.6707V21.254ZM89.6707 32.206V33.206H90.6707V32.206H89.6707ZM65.6207 32.206H64.6207V33.206H65.6207V32.206ZM66.6567 41.678H65.6567V42.678H66.6567V41.678ZM93.7407 41.678H94.7407V40.678H93.7407V41.678ZM93.7407 53V54H94.7407V53H93.7407ZM52.1527 53H51.1527V54H52.1527V53ZM52.1527 1.2V0.199996H51.1527V1.2H52.1527ZM92.7787 1.2H93.7787V0.199996H92.7787V1.2ZM92.7787 12.522V13.522H93.7787V12.522H92.7787ZM66.6567 12.522V11.522H65.6567V12.522H66.6567ZM65.6207 22.254H89.6707V20.254H65.6207V22.254ZM88.6707 21.254V32.206H90.6707V21.254H88.6707ZM89.6707 31.206H65.6207V33.206H89.6707V31.206ZM66.6207 32.206V21.254H64.6207V32.206H66.6207ZM66.6567 42.678H93.7407V40.678H66.6567V42.678ZM92.7407 41.678V53H94.7407V41.678H92.7407ZM93.7407 52H52.1527V54H93.7407V52ZM53.1527 53V1.2H51.1527V53H53.1527ZM52.1527 2.2H92.7787V0.199996H52.1527V2.2ZM91.7787 1.2V12.522H93.7787V1.2H91.7787ZM92.7787 11.522H66.6567V13.522H92.7787V11.522ZM65.6567 12.522V41.678H67.6567V12.522H65.6567ZM95.6554 53L94.7406 52.5962L94.1209 54H95.6554V53ZM118.521 1.2V0.199996H117.87L117.607 0.796163L118.521 1.2ZM132.951 1.2L133.866 0.79507L133.602 0.199996H132.951V1.2ZM155.891 53V54H157.428L156.806 52.5951L155.891 53ZM140.647 53L139.719 53.3725L139.971 54H140.647V53ZM122.739 8.378V7.378H121.261L121.811 8.75045L122.739 8.378ZM128.511 8.378L129.439 8.75045L129.99 7.378H128.511V8.378ZM110.603 53V54H111.28L111.531 53.3725L110.603 53ZM108.161 42.936L107.217 42.6062L106.753 43.936H108.161V42.936ZM111.935 32.132V31.132H111.225L110.991 31.8022L111.935 32.132ZM137.243 32.132L138.187 31.8022L137.953 31.132H137.243V32.132ZM141.017 42.936V43.936H142.426L141.961 42.6062L141.017 42.936ZM96.5702 53.4038L119.436 1.60383L117.607 0.796163L94.7406 52.5962L96.5702 53.4038ZM118.521 2.2H132.951V0.199996H118.521V2.2ZM132.037 1.60492L154.977 53.4049L156.806 52.5951L133.866 0.79507L132.037 1.60492ZM155.891 52H140.647V54H155.891V52ZM141.575 52.6275L123.667 8.00554L121.811 8.75045L139.719 53.3725L141.575 52.6275ZM122.739 9.378H128.511V7.378H122.739V9.378ZM127.583 8.00554L109.675 52.6275L111.531 53.3725L129.439 8.75045L127.583 8.00554ZM110.603 52H95.6554V54H110.603V52ZM109.105 43.2658L112.879 32.4618L110.991 31.8022L107.217 42.6062L109.105 43.2658ZM111.935 33.132H137.243V31.132H111.935V33.132ZM136.299 32.4618L140.073 43.2658L141.961 42.6062L138.187 31.8022L136.299 32.4618ZM141.017 41.936H108.161V43.936H141.017V41.936ZM173.753 52.112L173.393 53.045L173.401 53.0481L173.409 53.051L173.753 52.112ZM164.725 46.488L164.032 47.2091L164.039 47.2158L164.725 46.488ZM158.805 37.978L157.887 38.3752L157.889 38.3803L158.805 37.978ZM158.805 16.296L159.72 16.6983L159.722 16.6932L158.805 16.296ZM164.725 7.712L164.039 6.98417L164.032 6.99089L164.725 7.712ZM173.753 2.162L174.101 3.09945L174.108 3.09669L173.753 2.162ZM197.951 2.68L197.542 3.59283L197.547 3.59479L197.951 2.68ZM207.423 9.932L208.093 10.6735L208.79 10.0434L208.205 9.3088L207.423 9.932ZM198.099 18.368L197.337 19.0156L198.005 19.8015L198.769 19.1095L198.099 18.368ZM192.549 13.854L192.084 14.7394L192.093 14.744L192.549 13.854ZM180.043 13.336L180.405 14.268L180.405 14.268L180.043 13.336ZM175.455 16.37L174.734 15.6764L174.734 15.6769L175.455 16.37ZM172.495 21.032L171.568 20.6563L171.563 20.6672L171.559 20.6781L172.495 21.032ZM172.495 33.168L171.559 33.5219L171.563 33.5328L171.568 33.5437L172.495 33.168ZM175.455 37.904L174.721 38.5834L174.734 38.5975L174.747 38.6111L175.455 37.904ZM180.043 40.864L180.405 39.932L180.405 39.932L180.043 40.864ZM192.549 40.346L192.093 39.4559L192.084 39.4606L192.549 40.346ZM198.099 35.832L198.769 35.0905L198.005 34.3985L197.337 35.1844L198.099 35.832ZM207.423 44.268L208.2 44.8972L208.795 44.1615L208.093 43.5265L207.423 44.268ZM197.951 51.52L198.359 52.4328L198.364 52.4304L197.951 51.52ZM185.149 53.036C181.16 53.036 177.479 52.4116 174.096 51.173L173.409 53.051C177.032 54.3778 180.948 55.036 185.149 55.036V53.036ZM174.112 51.179C170.774 49.8913 167.877 48.0843 165.41 45.7602L164.039 47.2158C166.703 49.7264 169.825 51.6687 173.393 53.045L174.112 51.179ZM165.417 45.7669C162.998 43.442 161.099 40.7143 159.72 37.5757L157.889 38.3803C159.371 41.7537 161.42 44.6993 164.032 47.2091L165.417 45.7669ZM159.722 37.5808C158.351 34.4124 157.659 30.9232 157.659 27.1H155.659C155.659 31.1701 156.397 34.9329 157.887 38.3752L159.722 37.5808ZM157.659 27.1C157.659 23.2766 158.351 19.8142 159.72 16.6983L157.889 15.8937C156.397 19.2898 155.659 23.0301 155.659 27.1H157.659ZM159.722 16.6932C161.102 13.5057 163 10.7555 165.417 8.4331L164.032 6.99089C161.417 9.50318 159.369 12.4756 157.887 15.8988L159.722 16.6932ZM165.41 8.43979C167.874 6.11834 170.767 4.33764 174.101 3.09942L173.404 1.22457C169.831 2.55169 166.706 4.47099 164.039 6.98421L165.41 8.43979ZM174.108 3.09669C177.487 1.8117 181.164 1.164 185.149 1.164V-0.836003C180.944 -0.836003 177.023 -0.151707 173.397 1.2273L174.108 3.09669ZM185.149 1.164C189.816 1.164 193.941 1.98167 197.542 3.59282L198.359 1.76718C194.462 0.0236579 190.052 -0.836003 185.149 -0.836003V1.164ZM197.547 3.59479C201.202 5.20882 204.228 7.52786 206.641 10.5552L208.205 9.3088C205.585 6.02147 202.297 3.50584 198.355 1.76521L197.547 3.59479ZM206.752 9.19046L197.428 17.6265L198.769 19.1095L208.093 10.6735L206.752 9.19046ZM198.861 17.7203C197.11 15.6608 195.159 14.0676 193.004 12.964L192.093 14.744C193.983 15.7123 195.733 17.1285 197.337 19.0156L198.861 17.7203ZM193.013 12.9686C190.882 11.8496 188.5 11.3 185.889 11.3V13.3C188.211 13.3 190.269 13.7864 192.084 14.7394L193.013 12.9686ZM185.889 11.3C183.657 11.3 181.584 11.6636 179.68 12.404L180.405 14.268C182.053 13.6271 183.877 13.3 185.889 13.3V11.3ZM179.68 12.404C177.773 13.1456 176.121 14.2367 174.734 15.6764L176.175 17.0636C177.354 15.8393 178.76 14.9078 180.405 14.268L179.68 12.404ZM174.734 15.6769C173.403 17.0606 172.351 18.7256 171.568 20.6563L173.421 21.4077C174.119 19.6877 175.039 18.2447 176.175 17.0631L174.734 15.6769ZM171.559 20.6781C170.82 22.631 170.459 24.7755 170.459 27.1H172.459C172.459 24.9844 172.787 23.0837 173.43 21.3859L171.559 20.6781ZM170.459 27.1C170.459 29.4244 170.82 31.569 171.559 33.5219L173.43 32.8141C172.787 31.1163 172.459 29.2156 172.459 27.1H170.459ZM171.568 33.5437C172.349 35.4715 173.399 37.1554 174.721 38.5834L176.188 37.2246C175.044 35.9886 174.12 34.5151 173.421 32.7923L171.568 33.5437ZM174.747 38.6111C176.133 39.9968 177.782 41.0577 179.68 41.796L180.405 39.932C178.752 39.289 177.341 38.3766 176.162 37.1969L174.747 38.6111ZM179.68 41.796C181.584 42.5364 183.657 42.9 185.889 42.9V40.9C183.877 40.9 182.053 40.5729 180.405 39.932L179.68 41.796ZM185.889 42.9C188.5 42.9 190.882 42.3504 193.013 41.2314L192.084 39.4606C190.269 40.4136 188.211 40.9 185.889 40.9V42.9ZM193.004 41.236C195.159 40.1324 197.11 38.5392 198.861 36.4796L197.337 35.1844C195.733 37.0715 193.983 38.4876 192.093 39.456L193.004 41.236ZM197.428 36.5735L206.752 45.0095L208.093 43.5265L198.769 35.0905L197.428 36.5735ZM206.645 43.6388C204.231 46.6208 201.2 48.9443 197.537 50.6096L198.364 52.4304C202.298 50.6423 205.582 48.1312 208.2 44.8972L206.645 43.6388ZM197.542 50.6072C193.941 52.2183 189.816 53.036 185.149 53.036V55.036C190.052 55.036 194.462 54.1763 198.359 52.4328L197.542 50.6072ZM248.587 1.2V0.199996H247.587V1.2H248.587ZM263.239 1.2H264.239V0.199996H263.239V1.2ZM263.239 53V54H264.239V53H263.239ZM248.587 53H247.587V54H248.587V53ZM228.607 53V54H229.607V53H228.607ZM213.955 53H212.955V54H213.955V53ZM213.955 1.2V0.199996H212.955V1.2H213.955ZM228.607 1.2H229.607V0.199996H228.607V1.2ZM249.623 32.798V33.798H250.623V32.798H249.623ZM227.571 32.798H226.571V33.798H227.571V32.798ZM227.571 20.662V19.662H226.571V20.662H227.571ZM249.623 20.662H250.623V19.662H249.623V20.662ZM248.587 2.2H263.239V0.199996H248.587V2.2ZM262.239 1.2V53H264.239V1.2H262.239ZM263.239 52H248.587V54H263.239V52ZM249.587 53V1.2H247.587V53H249.587ZM228.607 52H213.955V54H228.607V52ZM214.955 53V1.2H212.955V53H214.955ZM213.955 2.2H228.607V0.199996H213.955V2.2ZM227.607 1.2V53H229.607V1.2H227.607ZM249.623 31.798H227.571V33.798H249.623V31.798ZM228.571 32.798V20.662H226.571V32.798H228.571ZM227.571 21.662H249.623V19.662H227.571V21.662ZM248.623 20.662V32.798H250.623V20.662H248.623ZM287.043 21.254V20.254H286.043V21.254H287.043ZM311.093 21.254H312.093V20.254H311.093V21.254ZM311.093 32.206V33.206H312.093V32.206H311.093ZM287.043 32.206H286.043V33.206H287.043V32.206ZM288.079 41.678H287.079V42.678H288.079V41.678ZM315.163 41.678H316.163V40.678H315.163V41.678ZM315.163 53V54H316.163V53H315.163ZM273.575 53H272.575V54H273.575V53ZM273.575 1.2V0.199996H272.575V1.2H273.575ZM314.201 1.2H315.201V0.199996H314.201V1.2ZM314.201 12.522V13.522H315.201V12.522H314.201ZM288.079 12.522V11.522H287.079V12.522H288.079ZM287.043 22.254H311.093V20.254H287.043V22.254ZM310.093 21.254V32.206H312.093V21.254H310.093ZM311.093 31.206H287.043V33.206H311.093V31.206ZM288.043 32.206V21.254H286.043V32.206H288.043ZM288.079 42.678H315.163V40.678H288.079V42.678ZM314.163 41.678V53H316.163V41.678H314.163ZM315.163 52H273.575V54H315.163V52ZM274.575 53V1.2H272.575V53H274.575ZM273.575 2.2H314.201V0.199996H273.575V2.2ZM313.201 1.2V12.522H315.201V1.2H313.201ZM314.201 11.522H288.079V13.522H314.201V11.522ZM287.079 12.522V41.678H289.079V12.522H287.079ZM323.293 53H322.293V54H323.293V53ZM323.293 1.2V0.199996H322.293V1.2H323.293ZM359.183 3.494L358.773 4.40618L358.778 4.40835L359.183 3.494ZM367.175 10.154L366.335 10.6955L366.339 10.702L367.175 10.154ZM367.175 30.504L368.007 31.0587L368.012 31.052L367.175 30.504ZM359.183 37.016L359.582 37.9331L359.588 37.9303L359.183 37.016ZM331.433 39.236L330.747 38.5085L328.916 40.236H331.433V39.236ZM337.945 33.094H338.945V30.7762L337.259 32.3665L337.945 33.094ZM337.945 53V54H338.945V53H337.945ZM355.335 53L354.509 53.5636L354.807 54H355.335V53ZM342.459 34.13V33.13H340.566L341.633 34.6936L342.459 34.13ZM358.073 34.13L358.898 33.5642L358.6 33.13H358.073V34.13ZM371.023 53V54H372.922L371.848 52.4342L371.023 53ZM337.945 34.648L337.226 35.3432L338.945 37.1206V34.648H337.945ZM331.433 27.914V26.914H329.075L330.714 28.6092L331.433 27.914ZM352.893 25.916L352.237 25.1619L352.23 25.1673L352.224 25.1727L352.893 25.916ZM352.893 14.742L352.224 15.4853L352.23 15.4907L352.237 15.4961L352.893 14.742ZM331.433 12.744L330.714 12.0488L329.075 13.744H331.433V12.744ZM337.945 6.01H338.945V3.53738L337.226 5.31484L337.945 6.01ZM324.293 53V1.2H322.293V53H324.293ZM323.293 2.2H346.973V0.199996H323.293V2.2ZM346.973 2.2C351.605 2.2 355.528 2.94809 358.773 4.40617L359.593 2.58183C356.03 0.981241 351.814 0.199996 346.973 0.199996V2.2ZM358.778 4.40835C362.07 5.8661 364.575 7.96388 366.335 10.6955L368.016 9.61252C366.026 6.52278 363.203 4.18056 359.588 2.57965L358.778 4.40835ZM366.339 10.702C368.091 13.3766 368.987 16.5833 368.987 20.366H370.987C370.987 16.2553 370.009 12.6541 368.012 9.60597L366.339 10.702ZM368.987 20.366C368.987 24.0965 368.092 27.2794 366.339 29.956L368.012 31.052C370.007 28.006 370.987 24.4301 370.987 20.366H368.987ZM366.343 29.9493C364.586 32.5852 362.079 34.6399 358.778 36.1017L359.588 37.9303C363.194 36.3334 366.015 34.0468 368.007 31.0587L366.343 29.9493ZM358.785 36.0989C355.536 37.5114 351.609 38.236 346.973 38.236V40.236C351.81 40.236 356.023 39.4806 359.582 37.9331L358.785 36.0989ZM346.973 38.236H331.433V40.236H346.973V38.236ZM332.119 39.9635L338.631 33.8215L337.259 32.3665L330.747 38.5085L332.119 39.9635ZM336.945 33.094V53H338.945V33.094H336.945ZM337.945 52H323.293V54H337.945V52ZM356.161 52.4364L343.285 33.5664L341.633 34.6936L354.509 53.5636L356.161 52.4364ZM342.459 35.13H358.073V33.13H342.459V35.13ZM357.249 34.6958L370.199 53.5658L371.848 52.4342L358.898 33.5642L357.249 34.6958ZM371.023 52H355.335V54H371.023V52ZM338.664 33.9528L332.152 27.2188L330.714 28.6092L337.226 35.3432L338.664 33.9528ZM331.433 28.914H346.085V26.914H331.433V28.914ZM346.085 28.914C349.263 28.914 351.822 28.2257 353.562 26.6593L352.224 25.1727C351.005 26.2703 349.025 26.914 346.085 26.914V28.914ZM353.55 26.6701C355.335 25.1156 356.187 22.9696 356.187 20.366H354.187C354.187 22.4984 353.51 24.0524 352.237 25.1619L353.55 26.6701ZM356.187 20.366C356.187 17.7204 355.34 15.5465 353.55 13.9879L352.237 15.4961C353.506 16.6015 354.187 18.1769 354.187 20.366H356.187ZM353.562 13.9987C351.822 12.4323 349.263 11.744 346.085 11.744V13.744C349.025 13.744 351.005 14.3877 352.224 15.4853L353.562 13.9987ZM346.085 11.744H331.433V13.744H346.085V11.744ZM332.152 13.4392L338.664 6.70515L337.226 5.31484L330.714 12.0488L332.152 13.4392ZM336.945 6.01V34.648H338.945V6.01H336.945Z" fill="#2CE6FF"/>
</svg>
